<?xml version="1.0" encoding="UTF-8"?><svg id="Layer_2" xmlns="http://www.w3.org/2000/svg" viewBox="0 0 296.74 54.3"><defs><style>.cls-1{fill:#fff;}.cls-2{fill:#293a54;}.cls-3{fill:#2f7bea;}</style></defs><g id="Layer_1-2"><path class="cls-1" d="M104.79,1.73h-15V45.15c0,3.63,2.95,6.58,6.58,6.58h33.42v-15h-25V1.73Z"/><path class="cls-1" d="M204.66,3.57h-17.51l18.15,41.31c1.81,4.12,5.88,6.78,10.38,6.78h0c4.49,0,8.56-2.65,10.37-6.76L244.3,3.57h-17.71l-10.87,28.3-11.07-28.3Z"/><path class="cls-1" d="M159.65,1.75c-15.09,0-24.94,11.56-24.94,24.84s9.85,25.14,24.94,25.14,25.04-11.87,25.04-25.14S174.84,1.75,159.65,1.75Zm2.48,34.28c-7.32,1.81-13.98-4.71-12.12-11.88,.88-3.41,3.67-6.15,7.16-7.01,7.32-1.82,13.98,4.71,12.13,11.88-.88,3.41-3.68,6.15-7.16,7.01Z"/><path class="cls-1" d="M271.7,1.75c-15.09,0-24.94,11.56-24.94,24.84s9.85,25.14,24.94,25.14,25.04-11.87,25.04-25.14-9.85-24.84-25.04-24.84Zm2.48,34.28c-7.32,1.81-13.98-4.71-12.12-11.88,.88-3.41,3.67-6.15,7.16-7.01,7.32-1.82,13.98,4.71,12.13,11.88-.88,3.41-3.68,6.15-7.16,7.01Z"/><rect class="cls-3" x="14.39" y="26.81" width="43.55" height="18.71" rx="9.35" ry="9.35" transform="translate(87.32 36.17) rotate(135)"/><circle class="cls-1" cx="44.91" cy="27.42" r="7.6"/><rect class="cls-2" x="-3.64" y="8.78" width="43.55" height="18.71" rx="9.35" ry="9.35" transform="translate(-7.51 18.14) rotate(-45)"/><circle class="cls-1" cx="9.39" cy="26.88" r="7.6"/></g></svg>