<?xml version="1.0" encoding="UTF-8"?>
<svg id="Layer_2" data-name="Layer 2" xmlns="http://www.w3.org/2000/svg" viewBox="0 0 569.2 148.54">
  <defs>
    <style>
      .cls-1 {
        fill: #f2f3f3;
      }

      .cls-1, .cls-2, .cls-3, .cls-4, .cls-5 {
        stroke-width: 0px;
      }

      .cls-2 {
        fill: #f4f4f4;
      }

      .cls-3 {
        fill: #2f7bea;
      }

      .cls-4 {
        fill: #fff;
      }

      .cls-5 {
        fill: #293a54;
      }
    </style>
  </defs>
  <g id="Layer_1-2" data-name="Layer 1">
    <g>
      <circle class="cls-1" cx="74.27" cy="74.27" r="74.27"/>
      <g>
        <rect class="cls-3" x="46.39" y="73.53" width="95.18" height="40.9" rx="20.45" ry="20.45" transform="translate(-38.93 93.98) rotate(-45)"/>
        <rect class="cls-5" x="6.97" y="34.12" width="95.18" height="40.9" rx="20.45" ry="20.45" transform="translate(-22.6 54.56) rotate(-45)"/>
        <circle class="cls-4" cx="113.1" cy="74.86" r="16.61"/>
        <circle class="cls-4" cx="35.44" cy="73.68" r="16.61"/>
      </g>
    </g>
    <g>
      <path class="cls-2" d="M222.46,29.11h-27.1v78.44c0,6.56,5.32,11.88,11.88,11.88h60.37v-27.1h-45.16V29.11Z"/>
      <path class="cls-2" d="M402.87,32.44h-31.62l32.79,74.63c3.27,7.44,10.62,12.24,18.75,12.24h0c8.11,0,15.46-4.79,18.73-12.21l32.96-74.66h-31.98l-19.63,51.12-19.99-51.12Z"/>
      <path class="cls-2" d="M321.57,29.15c-27.25,0-45.05,20.89-45.05,44.87s17.8,45.41,45.05,45.41,45.23-21.43,45.23-45.41-17.8-44.87-45.23-44.87ZM326.05,91.08c-13.21,3.28-25.25-8.51-21.9-21.46,1.59-6.16,6.64-11.11,12.93-12.67,13.22-3.28,25.25,8.51,21.9,21.46-1.59,6.16-6.64,11.11-12.93,12.67Z"/>
      <path class="cls-2" d="M523.97,29.15c-27.25,0-45.05,20.89-45.05,44.87s17.8,45.41,45.05,45.41,45.23-21.43,45.23-45.41-17.8-44.87-45.23-44.87ZM528.46,91.08c-13.21,3.28-25.25-8.51-21.9-21.46,1.59-6.16,6.64-11.11,12.93-12.67,13.22-3.28,25.25,8.51,21.9,21.46-1.59,6.16-6.64,11.11-12.93,12.67Z"/>
    </g>
  </g>
</svg>