<svg xmlns="http://www.w3.org/2000/svg" viewBox="0 0 114.69 114.69"><defs><style>.cls-1{fill:#fff;}.cls-2{fill:#929497;}.cls-3{fill:#8cc540;}</style></defs><g id="Layer_2" data-name="Layer 2"><g id="Layer_1-2" data-name="Layer 1"><rect class="cls-1" width="114.69" height="114.69"/><path class="cls-2" d="M13.11,52.6h7.83c3.17,0,5.54,1.39,5.54,4.32a3.84,3.84,0,0,1-3,4v.06c2.27.46,3.44,1.68,3.44,3.75,0,4.08-3.58,4.94-6.64,4.94H13.11Zm4.54,6.73h1.26c1.49,0,3-.37,3-1.81s-1.46-1.7-3-1.7H17.65Zm0,7.07H19c1.66,0,3.39-.24,3.39-2s-1.78-2-3.34-2H17.65Z"/><polygon class="cls-3" points="29.82 52.6 34.36 52.6 34.36 55.82 29.82 57.22 29.82 52.6"/><polygon class="cls-2" points="38.19 52.6 42.73 52.6 42.73 66.25 49.76 66.25 49.76 69.63 38.19 69.63 38.19 52.6"/><path class="cls-2" d="M51.85,52.6h6.2C64,52.6,68.13,54.45,68.13,61c0,6.37-4.27,8.6-10.08,8.6h-6.2Zm4.54,13.66h1.75c3.4,0,5.3-1.76,5.3-5.15s-2-5.15-5.3-5.15H56.39Z"/><polygon class="cls-2" points="29.82 58.66 34.36 57.26 34.36 69.63 29.82 69.63 29.82 58.66"/><path class="cls-2" d="M100,48.18a1.6,1.6,0,1,1-1.59,1.6,1.57,1.57,0,0,1,1.59-1.6Zm0,.25a1.35,1.35,0,0,0,0,2.7,1.29,1.29,0,0,0,1.28-1.34A1.32,1.32,0,0,0,100,48.43Zm-.3,2.28h-.28V48.93a2.45,2.45,0,0,1,.51,0,1,1,0,0,1,.55.13.42.42,0,0,1,.16.37.44.44,0,0,1-.35.43v0c.16,0,.27.17.3.43a2.2,2.2,0,0,0,.11.44h-.29a1.2,1.2,0,0,1-.12-.45.34.34,0,0,0-.39-.31h-.2Zm0-1h.21c.23,0,.43-.09.43-.31s-.11-.31-.43-.31h-.21Z"/><polygon class="cls-3" points="88.33 60.69 88.27 63.35 89.35 64.37 89.29 68.62 90.73 68.64 90.87 60.73 88.33 60.69"/><polygon class="cls-3" points="83.85 63.62 83.85 58.11 81.3 57.26 81.3 68.62 83.19 68.62 83.19 64.19 83.85 63.62"/><polygon class="cls-3" points="86.23 63.07 84.33 64.71 84.33 68.62 85.73 68.62 86.83 68.62 88.22 68.62 88.22 64.88 86.23 63.07"/><polygon class="cls-3" points="83.22 47.84 80.64 46.27 80.64 53.43 74.99 50.7 75.48 53.01 70.9 52.74 73.33 56.7 71.12 57.96 77.22 61.15 71.56 64.62 73.3 65.95 70.89 70.14 75.57 69.57 76.03 71.75 80.16 68.95 80.16 55.69 85 57.4 85 62.63 86.25 61.54 87.11 62.33 87.11 59.56 91.95 59.56 91.95 68.93 96.1 71.75 96.56 69.57 101.23 70.14 98.83 65.95 100.57 64.62 94.91 61.15 100.92 58.05 98.8 56.7 101.58 52.74 96.64 53.01 97.14 50.7 91.49 53.43 91.49 46.27 88.91 47.84 86.06 42.94 83.22 47.84"/></g></g></svg>